<svg width="48" height="48" viewBox="0 0 48 48" fill="none" xmlns="http://www.w3.org/2000/svg">
<rect width="48" height="48" rx="24" fill="black" fill-opacity="0.1"/>
<path fill-rule="evenodd" clip-rule="evenodd" d="M15.98 13.795C17.0496 13.25 18.4497 13.25 21.25 13.25H26.75C29.5503 13.25 30.9504 13.25 32.02 13.795C32.9608 14.2743 33.7257 15.0392 34.205 15.98C34.75 17.0496 34.75 18.4497 34.75 21.25V26.75C34.75 29.5503 34.75 30.9504 34.205 32.02C33.7257 32.9608 32.9608 33.7257 32.02 34.205C30.9504 34.75 29.5503 34.75 26.75 34.75H21.25C18.4497 34.75 17.0496 34.75 15.98 34.205C15.0392 33.7257 14.2743 32.9608 13.795 32.02C13.25 30.9504 13.25 29.5503 13.25 26.75V21.25C13.25 18.4497 13.25 17.0496 13.795 15.98C14.2743 15.0392 15.0392 14.2743 15.98 13.795ZM22 19.25C21.5858 19.25 21.25 19.5858 21.25 20C21.25 20.4142 21.5858 20.75 22 20.75H26.1893L19.4697 27.4697C19.1768 27.7626 19.1768 28.2374 19.4697 28.5303C19.7626 28.8232 20.2374 28.8232 20.5303 28.5303L27.25 21.8107V26C27.25 26.4142 27.5858 26.75 28 26.75C28.4142 26.75 28.75 26.4142 28.75 26V20C28.75 19.5858 28.4142 19.25 28 19.25H22Z" fill="white"/>
</svg>
