<svg width="48" height="48" viewBox="0 0 48 48" fill="none" xmlns="http://www.w3.org/2000/svg">
<rect width="48" height="48" rx="24" fill="black" fill-opacity="0.1"/>
<path fill-rule="evenodd" clip-rule="evenodd" d="M14.3193 28.6807C14.293 28.6244 14.2667 28.5684 14.2409 28.5125C13.6048 27.1395 13.25 25.6102 13.25 24C13.25 18.0629 18.0629 13.25 24 13.25C29.9371 13.25 34.75 18.0629 34.75 24C34.75 29.9371 29.9371 34.75 24 34.75C22.786 34.75 21.7221 34.5765 20.7237 34.2194C19.8304 33.8998 19.4643 33.7705 19.3538 33.7445C18.6826 33.5866 18.0471 33.8925 17.4165 34.196C17.0094 34.392 16.6043 34.587 16.1929 34.6555C15.0684 34.8429 14.0679 33.9222 14.1612 32.7861C14.1945 32.3801 14.3517 32.0332 14.5098 31.6842C14.6116 31.4593 14.7139 31.2336 14.7837 30.9906C15.0186 30.1734 14.6611 29.4103 14.3193 28.6807ZM19.5 22.75C18.8096 22.75 18.25 23.3096 18.25 24C18.25 24.6904 18.8096 25.25 19.5 25.25C20.1904 25.25 20.75 24.6904 20.75 24C20.75 23.3096 20.1904 22.75 19.5 22.75ZM24 22.75C23.3096 22.75 22.75 23.3096 22.75 24C22.75 24.6904 23.3096 25.25 24 25.25C24.6904 25.25 25.25 24.6904 25.25 24C25.25 23.3096 24.6904 22.75 24 22.75ZM28.5 22.75C27.8096 22.75 27.25 23.3096 27.25 24C27.25 24.6904 27.8096 25.25 28.5 25.25C29.1904 25.25 29.75 24.6904 29.75 24C29.75 23.3096 29.1904 22.75 28.5 22.75Z" fill="white"/>
</svg>
